<svg xmlns="http://www.w3.org/2000/svg" viewBox="0 0 261 261" role="img" aria-labelledby="title">
  <title id="title">University of Leeds</title>
  <rect width="261" height="261" fill="#fff"/>
  <polygon points="157 83.3 161.2 83.3 161.2 79.5 154.4 79.5 154.4 90.9 157 90.9 157 83.3"/>
  <polygon points="162.4 168.3 167 168.3 167 126.7 177.2 126.7 177.2 119.1 162.4 119.1 162.4 168.3"/>
  <polygon points="142 168.3 146.6 168.3 146.6 126.7 156.8 126.7 156.8 119.1 142 119.1 142 168.3"/>
  <path d="M184.2 206.2c0-8.4-6.6-14.2-14.4-14.2s-14.4 5.8-14.4 14.2 6.6 14.2 14.4 14.2 14.4-5.8 14.4-14.2Zm-23.4 0c0-5.4 4.2-9 9-9s9 3.6 9 9-4.2 9-9 9-9-3.6-9-9Z"/>
  <polygon points="169 83.3 173.2 83.3 173.2 79.5 166.4 79.5 166.4 90.9 169 90.9 169 83.3"/>
  <polygon points="181 83.3 185.2 83.3 185.2 79.5 178.4 79.5 178.4 90.9 181 90.9 181 83.3"/>
  <polygon points="182.8 168.3 187.4 168.3 187.4 126.7 197.6 126.7 197.6 119.1 182.8 119.1 182.8 168.3"/>
  <path d="M0 0v261h114.2v-69.1H142V261h4.6v-77.7H193V261h4.6v-69.1h27.8V261H261V0H0Zm169.6 30h.4l26.8 16.4h-54L169.6 30Zm-27.2 19.6h54.8l2.8 19.7h-60.4l2.8-19.7Zm77.2 137.7h-22v-8.6H142v8.6h-22v-19.2h3.8v-62.8h6V72.7h80v32.6h6v62.8h3.8v19.2Z"/>
  <polygon points="137.2 112.1 202.4 112.1 205.2 107.9 134.4 107.9 137.2 112.1"/>
</svg>
